<svg width="121" height="120" viewBox="0 0 121 120" fill="none" xmlns="http://www.w3.org/2000/svg">
<path d="M76.6665 94C95.9965 94 111.667 78.33 111.667 59C111.667 39.67 95.9965 24 76.6665 24C57.3365 24 41.6665 39.67 41.6665 59C41.6665 78.33 57.3365 94 76.6665 94Z" fill="#FA9FFC"/>
<path d="M115.157 59.7727C114.933 59.6502 109.622 56.8023 103.737 57.9207C99.5815 58.7097 96.3398 61.2467 94.7314 62.7392C95.6982 61.5392 96.9958 59.5422 97.2684 57.2054C97.7057 53.446 95.3149 50.3596 95.2122 50.2292L94.9 49.8327L94.5285 50.1752C94.4192 50.2766 92.2721 52.3158 91.3158 55.1676C90.381 53.1261 89.1594 51.2285 87.688 49.5324C88.4296 48.6643 88.9908 47.1482 87.1018 45.0182C85.3525 43.0436 81.2532 42.3441 81.0794 42.3152C80.9424 42.2954 80.7988 42.3323 80.6934 42.4258C80.588 42.5193 80.5301 42.655 80.5366 42.796C80.5445 42.9725 80.7474 47.1258 82.4967 49.1003C83.3516 50.0646 84.2263 50.6033 85.097 50.6982C85.1931 50.7087 85.2893 50.714 85.3855 50.714C85.8412 50.714 86.2812 50.5822 86.704 50.3412C88.593 52.5199 89.9511 54.9279 90.8837 57.4847C90.7928 59.6384 91.5476 61.5221 92.1851 62.676C93.069 68.1795 92.5724 74.0399 91.6148 79.575C90.8876 76.9985 89.1344 75.2426 87.4786 73.7791C87.0939 73.4406 86.7514 73.2298 86.3984 73.1165C86.2687 73.0744 86.129 73.0744 85.9993 73.1165C85.6502 73.2285 85.2972 73.4458 84.9192 73.7791C83.8469 74.7262 82.7365 75.8024 81.8842 77.1368C80.4563 76.2608 78.8229 75.5521 76.9985 75.0858C76.4576 74.9494 75.9144 74.8225 75.3691 74.7051C80.4616 73.2548 83.7139 70.8759 84.2368 68.1057C84.5095 66.662 84.1459 64.5043 80.8633 62.4257C77.9719 60.5947 73.9319 59.147 69.253 58.1789C69.4111 58.0392 69.5784 57.9128 69.7286 57.7613C72.1023 55.3718 73.0994 51.8442 72.3973 48.3258C71.7677 45.1736 69.8695 42.659 67.3193 41.5973C62.5087 39.595 56.2004 39.8967 55.8236 39.9164C49.8459 40.0916 44.3701 42.2203 41.1744 45.6083C39.404 47.4867 38.7467 49.7642 39.3237 52.0207C39.8822 54.2047 41.5564 56.1213 43.9486 57.4293C41.8673 57.6757 39.7584 57.9984 37.7944 58.4858C33.0377 59.6674 29.7367 62.7023 29.1821 66.4025C28.7 69.6205 30.4322 72.6739 33.9361 74.7802C34.2826 74.9883 34.6567 75.1767 35.0321 75.3651C30.448 76.5625 26.4857 78.1682 23.5074 80.1085C20.1431 82.3017 19.2922 84.5424 19.3054 86.272C18.7297 86.1389 18.1396 86.0309 17.5271 85.9743C11.5797 85.4289 6.46739 89.2002 6.25137 89.3609L5.6665 89.7996L6.16179 90.3357C6.34357 90.532 10.6879 95.1687 16.634 95.714C17.0331 95.7509 17.4296 95.768 17.8195 95.768C21.276 95.768 24.3373 94.4337 26.159 93.4246C24.8971 94.4561 23.2505 96.1487 22.4299 98.4552C21.0283 102.4 22.6341 106.501 22.7026 106.674L22.9805 107.368L23.6339 107.004C23.7972 106.915 27.6304 104.746 29.0333 100.801C29.7433 98.8017 29.6814 96.7652 29.4377 95.2174C30.8738 95.6835 32.3358 96.0657 33.8162 96.3621C45.1143 98.6146 54.5828 99.7409 62.3203 99.7409C67.1072 99.7409 71.1934 99.2825 74.6749 98.4184C74.8632 98.616 75.0661 98.7859 75.2821 98.8781C77.4674 99.8094 80.2679 100.6 82.9064 98.7477C84.1933 100.509 85.0364 101.58 85.9901 101.895C86.0559 101.917 86.1258 101.928 86.1943 101.928C86.2627 101.928 86.3326 101.917 86.3984 101.895C87.3534 101.58 88.1965 100.509 89.4834 98.7477C92.1219 100.602 94.9224 99.8107 97.1077 98.8781C97.8375 98.5672 98.508 97.4923 98.4368 96.7481C98.2287 94.5641 97.5674 92.8727 96.378 91.5054C99.513 89.9471 100.381 86.9095 101.041 83.6638C101.308 82.3492 100.842 81.5325 99.5749 81.0938C97.3699 80.3285 95.1806 79.7002 92.8293 80.1704C93.7263 75.0674 94.2387 69.7035 93.7276 64.5596L93.75 64.5715C93.9371 64.6729 97.6847 66.6831 102.35 66.6831C103.262 66.6831 104.209 66.6067 105.171 66.4236C111.05 65.3065 115.116 60.6816 115.286 60.4854L115.667 60.048L115.157 59.7727ZM86.7027 49.2057C86.2167 49.6365 85.7056 49.8288 85.1971 49.7682C84.5648 49.6984 83.8904 49.265 83.1936 48.4786C82.0251 47.16 81.6352 44.536 81.5154 43.3532C82.6746 43.614 85.2327 44.3147 86.4011 45.6333C87.6841 47.081 87.7829 48.2494 86.7027 49.2057ZM85.7833 74.7591C85.9348 74.6261 86.0731 74.5234 86.1982 74.4522C86.322 74.5234 86.459 74.6248 86.6118 74.7591C88.8577 76.7443 91.2499 80.7052 90.6611 81.4943C89.4676 82.9037 86.8107 86.3971 86.8226 87.3653C86.8252 87.6182 86.8805 87.825 86.9912 88.0015C87.1203 88.2044 87.31 88.3414 87.4918 88.4639C87.5563 88.5073 87.6867 88.6219 87.6999 88.6391C89.3214 90.69 89.7561 92.8846 88.9223 94.7261C88.0371 94.0938 87.335 93.3944 86.9227 92.7305C86.9069 92.7041 86.874 92.7015 86.8529 92.6804C86.8318 92.6593 86.8292 92.6264 86.8028 92.6106C86.7844 92.5987 86.762 92.6093 86.7422 92.6C86.6988 92.5826 86.652 92.575 86.6052 92.5777C86.5585 92.5751 86.5117 92.5827 86.4682 92.6C86.4485 92.608 86.4274 92.5987 86.409 92.6093C86.3826 92.6251 86.38 92.658 86.3589 92.6791C86.3378 92.7002 86.3049 92.7028 86.2891 92.7305C85.8781 93.3944 85.176 94.0938 84.2895 94.7261C83.4557 92.8846 83.8891 90.69 85.5119 88.6391C85.5435 88.5982 85.9124 88.261 86.0388 88.0779C86.1613 87.8988 86.2232 87.6854 86.2259 87.4272C86.239 86.3971 81.7643 81.4271 81.767 81.4047C81.9935 78.6345 83.5374 76.7443 85.7833 74.7591ZM85.0983 87.9054C83.3898 88.9644 77.8389 90.7836 77.3713 90.6663C74.0176 89.8233 73.2983 86.6882 72.6318 83.4069C72.4948 82.7364 72.5989 82.556 73.2443 82.332C75.7511 81.4627 78.2183 80.7816 80.8475 81.9474C80.9634 81.9975 85.4447 86.8252 85.4777 87.4166C85.4763 87.5247 85.4579 87.5997 85.421 87.6538C85.3604 87.742 85.2089 87.8369 85.0983 87.9054ZM76.6705 76.3636C78.3869 76.8022 79.9189 77.4661 81.2453 78.2881C80.9295 78.9737 80.7032 79.6971 80.5722 80.4405C78.4765 79.7436 76.5256 79.9887 74.5985 80.5314C74.3074 78.8361 73.4933 77.1394 72.1589 75.4533C73.7027 75.7049 75.2294 75.9947 76.6705 76.3636ZM82.942 67.862C82.4467 70.4873 78.2631 72.9321 72.284 74.09C71.3343 74.2744 70.1106 74.5102 68.6945 74.7644C59.0825 72.9413 52.8032 69.6232 50.523 65.1326C49.4007 62.9223 49.4573 60.87 49.7168 59.4869C52.4686 60.2549 56.0528 61.0426 59.6094 61.0939C59.6226 61.1203 59.6305 61.1453 59.6437 61.1717C60.5499 62.9671 62.7893 65.4224 68.2993 66.9281C70.1027 67.4207 71.7466 67.667 73.2232 67.667C75.0503 67.667 76.6204 67.289 77.9179 66.5355C79.4078 65.6688 80.1586 64.5188 80.5156 63.7825C81.8816 64.7177 83.27 66.1245 82.942 67.862ZM80.0058 63.4505C79.6989 64.1026 79.0099 65.2117 77.6031 66.0257C75.4033 67.2969 72.3249 67.4075 68.4561 66.3511C63.4716 64.9904 61.2441 62.8946 60.2641 61.0992C62.9842 61.065 65.6385 60.5618 67.8265 59.2392C72.7609 60.1495 77.0117 61.5932 80.0058 63.4505ZM66.8122 42.8144C68.9567 43.7075 70.5624 45.8638 71.1051 48.5853C71.7216 51.6716 70.8575 54.7566 68.7946 56.8339C67.4734 58.163 65.7307 59.0338 63.5704 59.4698C70.0329 52.433 67.6473 45.3633 66.3103 42.6326C66.4749 42.6945 66.6488 42.7459 66.8122 42.8144ZM65.4844 42.3349C65.9757 43.2083 66.8872 45.0932 67.1929 47.5631C67.7382 51.9522 66.1654 56.008 62.564 59.6357C59.2274 60.0744 54.9753 59.5633 49.755 58.109C54.1046 56.5547 57.2067 54.1428 58.9692 50.9102C61.1098 46.9848 60.6777 43.0173 60.3576 41.3707C61.9554 41.5195 63.7759 41.8001 65.4844 42.3349ZM42.1321 46.5132C44.7732 43.7128 49.1451 41.8488 54.0572 41.3601C54.0559 42.9949 53.5672 47.2535 48.7737 49.4455C46.9783 50.2661 45.4713 50.3623 44.299 49.7313C42.9198 48.9897 42.3165 47.4129 42.082 46.5738C42.0991 46.5541 42.1136 46.533 42.1321 46.5132ZM40.5988 51.6953C40.1957 50.1225 40.5593 48.5234 41.6183 47.1205C41.9424 48.0913 42.63 49.51 44.0118 50.2556C44.6125 50.5796 45.279 50.7416 46.0088 50.7416C46.9177 50.7416 47.9254 50.49 49.0213 49.9882C54.1428 47.6461 54.6526 43.0647 54.6513 41.318C55.057 41.2877 56.3242 41.21 57.0197 41.21C57.6994 41.21 58.6544 41.2363 59.7346 41.3167C60.027 42.7617 60.5499 46.7609 58.4436 50.6218C56.6456 53.9202 53.3669 56.3307 48.7249 57.8179C48.0449 57.6173 47.3677 57.407 46.6937 57.187C43.4915 56.1503 41.2139 54.0967 40.5988 51.6953ZM46.4342 58.4897C47.1376 58.7176 48.0571 59.01 49.128 59.3196C48.8382 60.7936 48.7684 62.9895 49.9842 65.3908C52.2565 69.8813 58.0063 73.1218 67.0677 75.0489C61.1625 76.0501 52.7162 77.146 45.333 76.5453C40.4262 73.6039 37.7403 70.3635 37.3992 66.8978C37.0435 63.2793 39.3658 60.3839 40.421 59.2695C42.3995 58.902 44.4583 58.6597 46.4342 58.4897ZM34.6145 73.6527C31.5901 71.8348 30.0858 69.2636 30.4849 66.6001C30.9512 63.4834 33.9453 60.8015 38.1118 59.7661C38.536 59.6608 38.9825 59.5765 39.4212 59.4843C38.2053 60.9346 36.4784 63.6231 36.8051 66.9518C37.1384 70.3608 39.5542 73.5367 43.9736 76.4136C40.392 76.0079 37.1252 75.1635 34.6145 73.6527ZM37.033 76.2332C40.2431 77.3976 44.3121 77.9891 49.2742 78.0154C48.1216 80.393 45.3593 83.2383 38.8837 85.0588C34.1034 86.401 30.2847 86.2759 27.5356 84.686C25.5834 83.5571 24.7035 81.9606 24.3557 81.136C27.5672 79.0732 31.9497 77.4095 37.033 76.2332ZM17.4059 87.2889C18.0145 87.3442 18.6019 87.4588 19.175 87.6024L21.521 90.935L17.9683 90.6136C17.9762 90.5744 17.976 90.534 17.9679 90.4949C17.9597 90.4557 17.9438 90.4186 17.9209 90.3857L15.7211 87.2612C16.2826 87.2304 16.8457 87.2396 17.4059 87.2889ZM20.0957 87.8724C22.7684 88.7497 24.9024 90.337 26.0629 91.3447L22.2692 91.0022C22.2613 90.9811 22.2679 90.9574 22.2547 90.9377L20.0957 87.8724ZM15.0401 87.3323L17.3084 90.5543L14.0495 90.2606L12.3647 87.8672C13.238 87.6064 14.1337 87.4274 15.0401 87.3323ZM11.7654 88.0516L13.271 90.1895L8.12187 89.7245C9.27475 89.0414 10.4959 88.4807 11.7654 88.0516ZM16.7538 94.4034C12.8205 94.0438 9.58007 91.6424 8.06391 90.3186L26.0721 91.9454C24.3544 92.9676 20.7148 94.7656 16.7538 94.4034ZM27.7924 100.361C26.8941 102.89 24.7733 104.642 23.676 105.412C23.3125 104.122 22.7724 101.426 23.6721 98.8965C24.5243 96.4965 26.4673 94.8091 27.6028 93.9832C27.6647 93.9766 27.7411 93.9674 27.8188 93.9581C28.1797 95.2846 28.6684 97.898 27.7924 100.361ZM28.9753 93.2099C28.8634 92.849 28.8054 92.4472 28.4853 91.8953C28.1652 91.3434 24.9406 88.0911 20.6555 86.6487C20.4685 84.8493 21.5631 83.0763 23.8499 81.4798C24.2556 82.4098 25.1961 84.0168 27.2207 85.1931C28.8067 86.1152 30.7181 86.5762 32.935 86.5762C34.766 86.5762 36.8051 86.2614 39.0444 85.6331C45.8639 83.7165 48.7052 80.592 49.867 78.0167C53.0613 78.0049 56.6219 77.7612 60.5486 77.2922C60.3089 78.7122 59.7438 80.0703 58.8085 81.3454C52.898 89.4083 34.7291 92.438 28.9753 93.2099ZM34.0757 95.0725C32.4441 94.7488 30.836 94.3158 29.2625 93.7764C31.6507 93.4536 35.9067 92.7805 40.5237 91.5871C49.9553 89.1475 56.2689 85.8215 59.292 81.6998C60.3247 80.2916 60.9398 78.7899 61.173 77.2145C64.37 76.8167 67.808 76.2714 71.4937 75.5758C72.9018 77.2843 73.7475 78.9981 74.0255 80.7013C73.6224 80.8264 73.2206 80.9568 72.8175 81.0965C71.5503 81.5351 71.084 82.3531 71.3514 83.6664C71.603 84.902 71.8862 86.106 72.3117 87.2125C68.1624 93.0795 58.2632 97.0814 55.2994 98.1773C46.4975 97.5424 38.2343 95.9011 34.0757 95.0725ZM74.0149 97.2355C68.8276 98.4566 62.7208 98.6173 56.7549 98.2682C60.6158 96.7534 68.6985 93.0993 72.587 87.8395C73.2825 89.3622 74.3047 90.6584 76.0132 91.5067C74.8224 92.874 74.1624 94.5654 73.9543 96.7494C73.9411 96.8996 73.9754 97.0682 74.0149 97.2355ZM97.1393 96.8706C97.1433 97.0787 97.2249 97.3224 96.5993 97.6768C93.7606 99.2825 91.5594 98.8491 89.7798 97.3237C89.7113 97.2652 89.6313 97.2215 89.5451 97.1953C89.4588 97.1691 89.3681 97.161 89.2785 97.1715C89.189 97.182 89.1026 97.2109 89.0248 97.2564C88.9469 97.3018 88.8793 97.3629 88.8261 97.4357C87.6867 99.0045 86.8305 100.182 86.1969 100.559C85.5646 100.181 84.7084 99.0045 83.569 97.4357C83.5157 97.3628 83.4479 97.3017 83.3699 97.2562C83.2919 97.2108 83.2053 97.1819 83.1157 97.1715C83.026 97.1611 82.9351 97.1694 82.8488 97.1958C82.7624 97.2222 82.6825 97.2662 82.614 97.325C80.8343 98.8517 78.5568 98.8043 75.5126 97.6333C75.1096 97.4778 75.2505 97.08 75.2544 96.8745C75.4678 94.6392 77.6861 91.6332 77.723 91.5594C80.2521 91.1313 82.5995 90.0195 84.2948 89.1093C83.0737 91.209 82.7971 93.6275 83.8219 95.4559C83.8469 95.5006 83.881 95.5396 83.9218 95.5706C83.9626 95.6016 84.0094 95.6239 84.0592 95.636C84.109 95.6481 84.1608 95.6498 84.2113 95.641C84.2618 95.6323 84.3099 95.6132 84.3527 95.5849C85.2933 94.9645 86.0652 94.2585 86.6026 93.5577C87.14 94.2585 87.912 94.9632 88.8525 95.5849C88.8952 95.6133 88.9434 95.6325 88.9939 95.6414C89.0444 95.6502 89.0963 95.6486 89.1461 95.6364C89.196 95.6243 89.2428 95.602 89.2836 95.5709C89.3244 95.5399 89.3584 95.5007 89.3833 95.4559C90.3792 93.6802 90.2593 91.5238 89.1317 89.4755C91.0694 90.5912 92.9386 91.3091 94.7103 91.6226C94.7432 91.6714 96.9273 94.6405 97.1393 96.8706ZM99.1495 82.3307C99.7962 82.5547 99.899 82.7351 99.762 83.4056C99.0955 86.6882 97.8757 90.5188 94.7432 90.8652C92.6067 90.4687 90.3133 89.4689 87.908 87.8408C87.7908 87.7618 87.6722 87.6788 87.6208 87.5984C87.5866 87.5431 87.5695 87.4628 87.5682 87.3534C87.5695 86.7633 89.8312 83.6045 91.2169 81.9909C91.703 81.0345 96.644 81.464 99.1495 82.3307ZM93.3838 62.8643C92.7805 61.9304 91.5239 59.6213 91.8268 57.0157C92.1351 54.368 93.9753 52.1208 94.7828 51.2488C95.3861 52.1827 96.6427 54.4919 96.3398 57.0974C96.0328 59.7438 94.1913 61.9923 93.3838 62.8643ZM94.7656 64.0301C94.7606 64.0274 94.7553 64.0251 94.7498 64.0235C94.7566 64.0158 94.7641 64.0088 94.7722 64.0024C94.7722 64.0117 94.7643 64.0196 94.7656 64.0301ZM103.911 58.8375C108.015 58.059 111.897 59.367 113.679 60.1179L107.525 61.2942H107.523L95.12 63.6639C96.5387 62.3085 99.7765 59.6226 103.911 58.8375ZM95.2662 64.2448L99.1416 63.5045C99.156 63.5203 102.166 65.7294 102.166 65.7294C99.2087 65.6833 96.6401 64.8191 95.2662 64.2448ZM104.997 65.5094C104.382 65.6266 103.772 65.6885 103.172 65.7201L99.9148 63.357L103.345 62.701C103.365 62.73 106.684 65.0707 106.684 65.0707C106.14 65.2486 105.578 65.3987 104.997 65.5094ZM107.364 64.8099L104.119 62.5521L107.5 61.9067L109.864 63.6231C109.064 64.0852 108.228 64.4821 107.364 64.8099ZM110.419 63.2859L108.306 61.7526L113.757 60.7106C113.045 61.3864 111.897 62.3598 110.419 63.2859Z" fill="#202F36"/>
<path d="M75.5877 28.4721C75.2155 27.7384 72.0973 27.0263 69.9179 26.8968C70.6785 22.0901 69.1033 18.2652 68.8389 18.0332C68.8141 18.0054 68.7849 17.9817 68.7526 17.9631C68.3534 17.7042 64.9763 18.3893 61.8905 20.3422C60.729 17.437 58.7966 14.9039 56.3015 13.0161C56.2129 12.9946 56.1204 12.9946 56.0318 13.0161C53.5407 14.9054 51.6121 17.4383 50.4537 20.3422C47.3679 18.3893 43.98 17.7042 43.5915 17.9631C43.5592 17.9817 43.5301 18.0054 43.5052 18.0332C43.2679 18.2598 41.6926 22.0901 42.4533 26.8968C40.2954 27.0263 37.1556 27.7384 36.7834 28.4721H36.7456C36.7438 28.4936 36.7438 28.5153 36.7456 28.5368C36.743 28.5637 36.743 28.5908 36.7456 28.6177C37.0053 30.8531 37.782 32.9974 39.0143 34.8804C40.2466 36.7635 41.9006 38.3337 43.8451 39.4665C45.928 40.6562 48.287 41.2776 50.6856 41.2684C52.2884 41.2634 53.8807 41.0104 55.406 40.5185L55.9455 40.6156C56.0777 40.6372 56.2125 40.6372 56.3447 40.6156L56.8842 40.5185C58.4096 41.0104 60.0019 41.2634 61.6046 41.2684C64.0033 41.2776 66.3622 40.6562 68.4451 39.4665C70.3977 38.3387 72.0601 36.7707 73.3001 34.8873C74.5401 33.0039 75.3234 30.8571 75.5877 28.6177C75.5904 28.5908 75.5904 28.5637 75.5877 28.5368C75.5896 28.5153 75.5896 28.4936 75.5877 28.4721ZM68.1052 19.0367C68.8575 21.1502 69.1443 23.4013 68.946 25.6359C68.7476 27.8706 68.0689 30.036 66.9562 31.984C64.9821 35.3849 61.8128 37.9291 58.0656 39.1213C61.3123 35.8573 63.1354 31.4412 63.1367 26.8374C63.1406 24.9825 62.8455 23.139 62.2627 21.378C64.0382 20.2227 66.0233 19.4272 68.1052 19.0367ZM56.1667 14.2246C57.9996 15.7781 59.475 17.7096 60.4918 19.8866C61.5087 22.0636 62.0428 24.4347 62.0577 26.8374C62.0425 29.2409 61.5083 31.6127 60.4915 33.7905C59.4747 35.9684 57.9995 37.9009 56.1667 39.4557C54.3339 37.9009 52.8586 35.9684 51.8419 33.7905C50.8251 31.6127 50.2908 29.2409 50.2756 26.8374C50.2905 24.4347 50.8247 22.0636 51.8415 19.8866C52.8583 17.7096 54.3337 15.7781 56.1667 14.2246ZM44.2281 19.0367C46.3101 19.4272 48.2951 20.2227 50.0706 21.378C49.0647 24.4348 48.9243 27.7103 49.6651 30.842C50.4059 33.9736 51.9989 36.8391 54.2677 39.1213C50.5205 37.9291 47.3513 35.3849 45.3772 31.984C44.2645 30.036 43.5857 27.8706 43.3874 25.6359C43.1891 23.4013 43.4759 21.1502 44.2281 19.0367ZM44.3738 38.5494C39.2218 35.6093 38.0889 30.3656 37.8677 28.9522C39.4047 28.3542 41.0316 28.0205 42.6798 27.9649C43.032 29.5647 43.625 31.1017 44.4385 32.5235C46.4224 35.9771 49.5786 38.6051 53.3344 39.9305C50.276 40.5537 47.0955 40.0558 44.3738 38.5278V38.5494ZM67.9596 38.5494C65.2379 40.0774 62.0573 40.5753 58.9989 39.9521C62.7582 38.6213 65.915 35.9852 67.8948 32.5235C68.7109 31.1029 69.304 29.5655 69.6535 27.9649C71.2945 28.0229 72.9139 28.3566 74.444 28.9522C74.2444 30.3656 73.1116 35.6093 67.9596 38.5278V38.5494Z" fill="#202F36"/>
</svg>
