<svg width="121" height="120" viewBox="0 0 121 120" fill="none" xmlns="http://www.w3.org/2000/svg">
<path d="M76.3332 94C95.6632 94 111.333 78.33 111.333 59C111.333 39.67 95.6632 24 76.3332 24C57.0033 24 41.3333 39.67 41.3333 59C41.3333 78.33 57.0033 94 76.3332 94Z" fill="#ACFC9F"/>
<path d="M114.823 59.701C114.6 59.5785 109.288 56.7305 103.404 57.8489C99.2483 58.6379 96.0065 61.175 94.3981 62.6674C95.365 61.4674 96.6625 59.4704 96.9352 57.1336C97.3725 53.3742 94.9817 50.2879 94.8789 50.1574L94.5667 49.761L94.1953 50.1034C94.0859 50.2049 91.9388 52.244 90.9825 55.0958C90.0477 53.0543 88.8261 51.1567 87.3548 49.4606C88.0964 48.5925 88.6575 47.0764 86.7686 44.9464C85.0193 42.9718 80.92 42.2724 80.7461 42.2434C80.6091 42.2236 80.4655 42.2605 80.3601 42.354C80.2548 42.4476 80.1968 42.5832 80.2034 42.7242C80.2113 42.9007 80.4142 47.054 82.1635 49.0286C83.0184 49.9928 83.893 50.5315 84.7637 50.6264C84.8599 50.6369 84.956 50.6422 85.0522 50.6422C85.508 50.6422 85.9479 50.5105 86.3708 50.2694C88.2597 52.4482 89.6178 54.8561 90.5504 57.4129C90.4595 59.5666 91.2143 61.4503 91.8519 62.6042C92.7358 68.1077 92.2392 73.9681 91.2815 79.5033C90.5544 76.9267 88.8011 75.1708 87.1453 73.7073C86.7607 73.3688 86.4182 73.158 86.0652 73.0448C85.9355 73.0026 85.7958 73.0026 85.6661 73.0448C85.317 73.1567 84.964 73.3741 84.5859 73.7073C83.5137 74.6544 82.4032 75.7306 81.5509 77.065C80.123 76.189 78.4896 75.4804 76.6652 75.014C76.1244 74.8776 75.5811 74.7507 75.0358 74.6334C80.1283 73.1831 83.3806 70.8041 83.9036 68.0339C84.1762 66.5902 83.8127 64.4325 80.5301 62.3539C77.6387 60.5229 73.5987 59.0753 68.9198 58.1071C69.0779 57.9675 69.2451 57.841 69.3953 57.6895C71.769 55.3 72.7662 51.7724 72.0641 48.254C71.4344 45.1018 69.5363 42.5872 66.9861 41.5255C62.1754 39.5232 55.8671 39.8249 55.4904 39.8447C49.5127 40.0199 44.0368 42.1485 40.8412 45.5365C39.0708 47.4149 38.4135 49.6925 38.9904 51.9489C39.549 54.1329 41.2232 56.0495 43.6153 57.3576C41.5341 57.6039 39.4251 57.9266 37.4611 58.414C32.7045 59.5956 29.4035 62.6305 28.8489 66.3307C28.3668 69.5488 30.099 72.6022 33.6029 74.7084C33.9493 74.9166 34.3234 75.1049 34.6988 75.2933C30.1148 76.4907 26.1525 78.0964 23.1742 80.0367C19.8099 82.23 18.9589 84.4706 18.9721 86.2002C18.3965 86.0671 17.8063 85.9591 17.1938 85.9025C11.2464 85.3571 6.13414 89.1284 5.91811 89.2891L5.33325 89.7278L5.82854 90.2639C6.01032 90.4602 10.3546 95.0969 16.3007 95.6423C16.6998 95.6791 17.0963 95.6963 17.4862 95.6963C20.9427 95.6963 24.004 94.3619 25.8258 93.3529C24.5639 94.3843 22.9173 96.077 22.0966 98.3835C20.6951 102.329 22.3008 106.429 22.3693 106.602L22.6473 107.296L23.3006 106.932C23.464 106.843 27.2972 104.675 28.7 100.729C29.41 98.7299 29.3481 96.6934 29.1044 95.1457C30.5405 95.6117 32.0025 95.9939 33.483 96.2904C44.7811 98.5429 54.2495 99.6691 61.9871 99.6691C66.774 99.6691 70.8601 99.2107 74.3416 98.3466C74.53 98.5442 74.7328 98.7141 74.9489 98.8063C77.1342 99.7376 79.9347 100.528 82.5731 98.6759C83.8601 100.437 84.7031 101.508 85.6568 101.823C85.7227 101.845 85.7925 101.856 85.861 101.856C85.9295 101.856 85.9993 101.845 86.0652 101.823C87.0202 101.508 87.8632 100.437 89.1502 98.6759C91.7887 100.531 94.5891 99.7389 96.7745 98.8063C97.5042 98.4954 98.1747 97.4206 98.1036 96.6763C97.8954 94.4923 97.2342 92.8009 96.0447 91.4336C99.1798 89.8753 100.048 86.8377 100.708 83.592C100.975 82.2774 100.509 81.4607 99.2417 81.022C97.0366 80.2567 94.8473 79.6284 92.496 80.0987C93.3931 74.9956 93.9055 69.6317 93.3944 64.4879L93.4168 64.4997C93.6038 64.6011 97.3514 66.6113 102.017 66.6113C102.929 66.6113 103.876 66.5349 104.837 66.3518C110.716 65.2347 114.783 60.6099 114.953 60.4136L115.333 59.9763L114.823 59.701ZM86.3695 49.1339C85.8834 49.5647 85.3723 49.757 84.8638 49.6964C84.2316 49.6266 83.5571 49.1932 82.8603 48.4068C81.6919 47.0882 81.302 44.4643 81.1821 43.2814C82.3413 43.5422 84.8994 44.243 86.0678 45.5615C87.3508 47.0092 87.4496 48.1776 86.3695 49.1339ZM85.45 74.6874C85.6015 74.5543 85.7398 74.4516 85.865 74.3804C85.9888 74.4516 86.1258 74.553 86.2786 74.6874C88.5245 76.6725 90.9166 80.6335 90.3278 81.4225C89.1344 82.832 86.4775 86.3253 86.4893 87.2935C86.492 87.5464 86.5473 87.7532 86.6579 87.9297C86.787 88.1326 86.9767 88.2696 87.1585 88.3921C87.223 88.4356 87.3535 88.5502 87.3666 88.5673C88.9882 90.6183 89.4229 92.8128 88.589 94.6543C87.7038 94.022 87.0017 93.3226 86.5894 92.6587C86.5736 92.6323 86.5407 92.6297 86.5196 92.6086C86.4986 92.5875 86.4959 92.5546 86.4696 92.5388C86.4511 92.527 86.4287 92.5375 86.409 92.5283C86.3655 92.5109 86.3187 92.5032 86.272 92.5059C86.2252 92.5033 86.1785 92.511 86.135 92.5283C86.1152 92.5362 86.0942 92.527 86.0757 92.5375C86.0494 92.5533 86.0467 92.5862 86.0257 92.6073C86.0046 92.6284 85.9717 92.631 85.9558 92.6587C85.5449 93.3226 84.8428 94.022 83.9563 94.6543C83.1224 92.8128 83.5558 90.6183 85.1787 88.5673C85.2103 88.5265 85.5791 88.1892 85.7056 88.0061C85.8281 87.827 85.89 87.6136 85.8926 87.3554C85.9058 86.3253 81.4311 81.3553 81.4337 81.3329C81.6603 78.5627 83.2041 76.6725 85.45 74.6874ZM84.765 87.8336C83.0566 88.8926 77.5057 90.7118 77.038 90.5945C73.6843 89.7515 72.9651 86.6164 72.2985 83.3351C72.1616 82.6647 72.2656 82.4842 72.9111 82.2603C75.4178 81.3909 77.885 80.7099 80.5143 81.8756C80.6302 81.9257 85.1115 86.7534 85.1444 87.3449C85.1431 87.4529 85.1247 87.528 85.0878 87.582C85.0272 87.6702 84.8757 87.7651 84.765 87.8336ZM76.3372 76.2918C78.0536 76.7304 79.5856 77.3943 80.9121 78.2163C80.5962 78.9019 80.37 79.6253 80.239 80.3687C78.1432 79.6719 76.1924 79.9169 74.2652 80.4596C73.9741 78.7643 73.16 77.0676 71.8257 75.3816C73.3695 75.6332 74.8962 75.923 76.3372 76.2918ZM82.6087 67.7902C82.1134 70.4155 77.9298 72.8603 71.9508 74.0182C71.0011 74.2026 69.7773 74.4384 68.3613 74.6926C58.7493 72.8696 52.4699 69.5514 50.1897 65.0609C49.0674 62.8505 49.1241 60.7982 49.3836 59.4151C52.1353 60.1831 55.7196 60.9708 59.2762 61.0222C59.2893 61.0485 59.2972 61.0735 59.3104 61.0999C60.2167 62.8953 62.456 65.3507 67.9661 66.8563C69.7694 67.3489 71.4133 67.5953 72.89 67.5953C74.717 67.5953 76.2872 67.2172 77.5847 66.4637C79.0745 65.597 79.8253 64.447 80.1823 63.7107C81.5483 64.6459 82.9367 66.0528 82.6087 67.7902ZM79.6725 63.3787C79.3656 64.0308 78.6767 65.1399 77.2699 65.954C75.0701 67.2251 71.9916 67.3358 68.1228 66.2793C63.1384 64.9186 60.9109 62.8229 59.9308 61.0274C62.651 60.9932 65.3052 60.49 67.4932 59.1675C72.4276 60.0777 76.6784 61.5214 79.6725 63.3787ZM66.4789 42.7426C68.6234 43.6357 70.2291 45.7921 70.7719 48.5135C71.3883 51.5998 70.5242 54.6849 68.4614 56.7622C67.1402 58.0913 65.3974 58.962 63.2371 59.398C69.6996 52.3612 67.314 45.2915 65.977 42.5608C66.1417 42.6227 66.3156 42.6741 66.4789 42.7426ZM65.1511 42.2631C65.6425 43.1365 66.554 45.0215 66.8596 47.4913C67.4049 51.8804 65.8321 55.9362 62.2308 59.564C58.8942 60.0026 54.6421 59.4915 49.4218 58.0373C53.7714 56.4829 56.8735 54.071 58.636 50.8385C60.7765 46.913 60.3445 42.9455 60.0244 41.2989C61.6222 41.4478 63.4426 41.7283 65.1511 42.2631ZM41.7988 46.4415C44.4399 43.641 48.8119 41.7771 53.7239 41.2884C53.7226 42.9231 53.2339 47.1818 48.4404 49.3737C46.645 50.1943 45.1381 50.2905 43.9657 49.6595C42.5865 48.9179 41.9832 47.3412 41.7488 46.5021C41.7659 46.4823 41.7804 46.4612 41.7988 46.4415ZM40.2655 51.6236C39.8625 50.0507 40.226 48.4516 41.2851 47.0487C41.6091 48.0195 42.2967 49.4382 43.6785 50.1838C44.2792 50.5078 44.9457 50.6699 45.6755 50.6699C46.5844 50.6699 47.5921 50.4183 48.6881 49.9164C53.8096 47.5743 54.3193 42.9929 54.318 41.2462C54.7237 41.2159 55.9909 41.1382 56.6864 41.1382C57.3661 41.1382 58.3212 41.1645 59.4013 41.2449C59.6937 42.6899 60.2167 46.6891 58.1104 50.55C56.3123 53.8484 53.0337 56.259 48.3917 57.7462C47.7116 57.5456 47.0345 57.3352 46.3605 57.1152C43.1582 56.0785 40.8807 54.0249 40.2655 51.6236ZM46.101 58.418C46.8044 58.6458 47.7238 58.9383 48.7948 59.2478C48.505 60.7218 48.4352 62.9177 49.651 65.319C51.9232 69.8096 57.6731 73.05 66.7345 74.9772C60.8292 75.9783 52.383 77.0742 44.9998 76.4736C40.093 73.5321 37.4071 70.2917 37.0659 66.826C36.7103 63.2075 39.0326 60.3122 40.0877 59.1978C42.0662 58.8303 44.1251 58.5879 46.101 58.418ZM34.2812 73.5809C31.2568 71.7631 29.7525 69.1918 30.1517 66.5283C30.618 63.4117 33.6121 60.7297 37.7786 59.6944C38.2027 59.589 38.6493 59.5047 39.0879 59.4125C37.8721 60.8628 36.1452 63.5513 36.4718 66.88C36.8051 70.2891 39.221 73.465 43.6403 76.3418C40.0587 75.9361 36.7919 75.0918 34.2812 73.5809ZM36.6997 76.1614C39.9099 77.3258 43.9789 77.9173 48.941 77.9436C47.7884 80.3213 45.0261 83.1665 38.5505 84.987C33.7702 86.3293 29.9514 86.2041 27.2023 84.6142C25.2501 83.4853 24.3702 81.8888 24.0225 81.0642C27.2339 79.0014 31.6164 77.3377 36.6997 76.1614ZM17.0726 87.2171C17.6812 87.2724 18.2687 87.387 18.8417 87.5306L21.1877 90.8633L17.6351 90.5419C17.6429 90.5026 17.6428 90.4622 17.6346 90.4231C17.6265 90.3839 17.6105 90.3468 17.5877 90.314L15.3879 87.1894C15.9494 87.1586 16.5124 87.1679 17.0726 87.2171ZM19.7625 87.8006C22.4352 88.6779 24.5691 90.2652 25.7296 91.2729L21.9359 90.9304C21.928 90.9094 21.9346 90.8857 21.9214 90.8659L19.7625 87.8006ZM14.7068 87.2606L16.9752 90.4826L13.7163 90.1888L12.0315 87.7954C12.9048 87.5346 13.8004 87.3556 14.7068 87.2606ZM11.4321 87.9798L12.9378 90.1177L7.78862 89.6527C8.9415 88.9696 10.1626 88.4089 11.4321 87.9798ZM16.4206 94.3316C12.4873 93.972 9.24682 91.5706 7.73066 90.2468L25.7388 91.8736C24.0211 92.8958 20.3816 94.6938 16.4206 94.3316ZM27.4592 100.29C26.5608 102.819 24.44 104.571 23.3428 105.34C22.9792 104.05 22.4391 101.354 23.3388 98.8247C24.1911 96.4247 26.134 94.7373 27.2695 93.9114C27.3314 93.9048 27.4078 93.8956 27.4855 93.8864C27.8465 95.2128 28.3352 97.8263 27.4592 100.29ZM28.6421 93.1382C28.5301 92.7772 28.4722 92.3755 28.1521 91.8235C27.832 91.2716 24.6073 88.0193 20.3223 86.5769C20.1352 84.7775 21.2299 83.0045 23.5166 81.408C23.9224 82.338 24.8629 83.945 26.8875 85.1213C28.4735 86.0434 30.3848 86.5045 32.6017 86.5045C34.4327 86.5045 36.4718 86.1896 38.7112 85.5613C45.5306 83.6447 48.3719 80.5202 49.5337 77.9449C52.7281 77.9331 56.2886 77.6894 60.2154 77.2205C59.9756 78.6405 59.4105 79.9985 58.4753 81.2736C52.5647 89.3366 34.3958 92.3662 28.6421 93.1382ZM33.7425 95.0008C32.1108 94.6771 30.5028 94.244 28.9292 93.7046C31.3174 93.3819 35.5735 92.7087 40.1905 91.5153C49.622 89.0757 55.9356 85.7497 58.9587 81.628C59.9914 80.2198 60.6066 78.7182 60.8397 77.1427C64.0367 76.7449 67.4748 76.1996 71.1604 75.5041C72.5686 77.2125 73.4143 78.9263 73.6922 80.6295C73.2891 80.7546 72.8874 80.8851 72.4843 81.0247C71.2171 81.4633 70.7508 82.2813 71.0182 83.5946C71.2698 84.8302 71.553 86.0342 71.9785 87.1407C67.8291 93.0078 57.9299 97.0096 54.9661 98.1055C46.1642 97.4706 37.9011 95.8293 33.7425 95.0008ZM73.6817 97.1637C68.4943 98.3848 62.3875 98.5455 56.4217 98.1964C60.2825 96.6816 68.3652 93.0275 72.2538 87.7677C72.9493 89.2905 73.9715 90.5866 75.6799 91.4349C74.4891 92.8023 73.8292 94.4936 73.6211 96.6776C73.6079 96.8278 73.6421 96.9964 73.6817 97.1637ZM96.8061 96.7988C96.81 97.0069 96.8917 97.2506 96.266 97.605C93.4273 99.2107 91.2262 98.7773 89.4466 97.2519C89.378 97.1934 89.2981 97.1497 89.2118 97.1235C89.1256 97.0973 89.0348 97.0892 88.9453 97.0998C88.8558 97.1103 88.7694 97.1391 88.6915 97.1846C88.6137 97.2301 88.546 97.2911 88.4929 97.3639C87.3535 98.9328 86.4972 100.11 85.8636 100.487C85.2314 100.109 84.3751 98.9328 83.2357 97.3639C83.1825 97.291 83.1147 97.2299 83.0367 97.1844C82.9587 97.139 82.8721 97.1101 82.7824 97.0998C82.6927 97.0894 82.6018 97.0976 82.5155 97.1241C82.4292 97.1505 82.3492 97.1945 82.2807 97.2533C80.5011 98.78 78.2236 98.7325 75.1794 97.5615C74.7763 97.4061 74.9172 97.0083 74.9212 96.8028C75.1346 94.5674 77.3529 91.5614 77.3897 91.4876C79.9189 91.0595 82.2662 89.9478 83.9615 89.0375C82.7404 91.1372 82.4638 93.5557 83.4886 95.3841C83.5137 95.4288 83.5477 95.4679 83.5885 95.4989C83.6294 95.5299 83.6761 95.5521 83.7259 95.5642C83.7758 95.5763 83.8275 95.578 83.878 95.5693C83.9285 95.5605 83.9767 95.5414 84.0195 95.5132C84.96 94.8927 85.7319 94.1867 86.2694 93.4859C86.8068 94.1867 87.5787 94.8914 88.5192 95.5132C88.562 95.5415 88.6101 95.5607 88.6607 95.5696C88.7112 95.5785 88.763 95.5768 88.8129 95.5647C88.8627 95.5525 88.9095 95.5302 88.9503 95.4992C88.9912 95.4681 89.0251 95.4289 89.0501 95.3841C90.0459 93.6084 89.926 91.4521 88.7985 89.4037C90.7362 90.5195 92.6053 91.2374 94.3771 91.5509C94.41 91.5996 96.594 94.5687 96.8061 96.7988ZM98.8162 82.2589C99.463 82.4829 99.5657 82.6633 99.4287 83.3338C98.7622 86.6164 97.5424 90.447 94.41 90.7934C92.2734 90.3969 89.9801 89.3972 87.5748 87.769C87.4575 87.69 87.339 87.607 87.2876 87.5267C87.2533 87.4713 87.2362 87.391 87.2349 87.2816C87.2362 86.6915 89.4979 83.5327 90.8837 81.9191C91.3698 80.9628 96.3108 81.3922 98.8162 82.2589ZM93.0506 62.7926C92.4473 61.8586 91.1906 59.5495 91.4936 56.9439C91.8018 54.2963 93.642 52.049 94.4495 51.177C95.0528 52.1109 96.3095 54.4201 96.0065 57.0256C95.6996 59.672 93.8581 61.9205 93.0506 62.7926ZM94.4324 63.9583C94.4274 63.9556 94.4221 63.9534 94.4166 63.9517C94.4234 63.9441 94.4309 63.937 94.439 63.9307C94.439 63.9399 94.4311 63.9478 94.4324 63.9583ZM103.578 58.7657C107.681 57.9872 111.563 59.2952 113.346 60.0461L107.191 61.2224H107.19L94.7867 63.5921C96.2054 62.2367 99.4432 59.5508 103.578 58.7657ZM94.9329 64.173L98.8083 63.4327C98.8228 63.4485 101.833 65.6576 101.833 65.6576C98.8755 65.6115 96.3068 64.7474 94.9329 64.173ZM104.663 65.4376C104.048 65.5548 103.438 65.6167 102.839 65.6484L99.5815 63.2852L103.012 62.6292C103.031 62.6582 106.351 64.999 106.351 64.999C105.807 65.1768 105.244 65.327 104.663 65.4376ZM107.031 64.7381L103.786 62.4804L107.166 61.8349L109.531 63.5513C108.731 64.0134 107.895 64.4103 107.031 64.7381ZM110.085 63.2141L107.972 61.6808L113.423 60.6388C112.712 61.3146 111.563 62.288 110.085 63.2141Z" fill="#202F36"/>
</svg>
