<svg width="120" height="120" viewBox="0 0 120 120" fill="none" xmlns="http://www.w3.org/2000/svg">
<path d="M76 94C95.33 94 111 78.33 111 59C111 39.67 95.33 24 76 24C56.67 24 41 39.67 41 59C41 78.33 56.67 94 76 94Z" fill="#A5CEFE"/>
<path d="M91.5 80C90.7729 77.4235 88.4679 75.2426 86.8121 73.7791C86.4274 73.4406 86.0849 73.2298 85.7319 73.1165C85.6022 73.0744 85.4625 73.0744 85.3328 73.1165C84.9837 73.2285 84.6307 73.4458 84.2526 73.7791C83.1804 74.7262 82.0699 75.8024 81.2177 77.1368C79.7898 76.2608 78.1564 75.5521 76.332 75.0858C75.7911 74.9494 75.2479 74.8225 74.7025 74.7051C79.7951 73.2548 83.0474 70.8759 83.5703 68.1057C83.843 66.662 83.4794 64.5043 80.1968 62.4257C77.3054 60.5947 73.2654 59.147 68.5865 58.1789C68.7446 58.0392 68.9119 57.9128 69.0621 57.7613C71.4358 55.3718 72.4329 51.8442 71.7308 48.3258C71.1012 45.1736 69.203 42.659 66.6528 41.5973C61.8422 39.595 55.5339 39.8967 55.1571 39.9164C49.1794 40.0916 43.7036 42.2203 40.5079 45.6083C38.7375 47.4867 38.0802 49.7642 38.6572 52.0207C39.2157 54.2047 40.8899 56.1213 43.2821 57.4293C41.2008 57.6757 39.0919 57.9984 37.1278 58.4858C32.3712 59.6674 29.0702 62.7023 28.5156 66.4025C28.0335 69.6205 29.7657 72.6739 33.2696 74.7802C33.616 74.9883 33.9901 75.1767 34.3656 75.3651C29.7815 76.5625 25.8192 78.1682 22.8409 80.1085C19.4766 82.3017 18.6257 84.5424 18.6389 86.272C18.0632 86.1389 17.4731 86.0309 16.8606 85.9743C10.9132 85.4289 5.80089 89.2002 5.58486 89.3609L5 89.7996L5.49529 90.3357C5.67707 90.532 10.0214 95.1687 15.9675 95.714C16.3666 95.7509 16.7631 95.768 17.153 95.768C20.6095 95.768 23.6708 94.4337 25.4925 93.4246C24.2306 94.4561 22.584 96.1487 21.7634 98.4552C20.3618 102.4 21.9676 106.501 22.0361 106.674L22.314 107.368L22.9674 107.004C23.1307 106.915 26.9639 104.746 28.3668 100.801C29.0768 98.8017 29.0149 96.7652 28.7712 95.2174C30.2073 95.6835 31.6693 96.0657 33.1497 96.3621C44.4478 98.6146 53.9163 99.7409 61.6538 99.7409C66.4407 99.7409 70.5268 99.2825 74.0083 98.4184C74.1967 98.616 74.3996 98.7859 74.6156 98.8781C76.8009 99.8094 79.6014 100.6 82.2399 98.7477C83.5268 100.509 84.3699 101.58 85.3236 101.895C85.3894 101.917 85.4592 101.928 85.5277 101.928C85.5962 101.928 85.6661 101.917 85.7319 101.895C86.6869 101.58 87.53 100.509 88.8169 98.7477C91.4554 100.602 94.2559 99.8107 96.4412 98.8781C97.171 98.5672 97.8414 97.4923 97.7703 96.7481C97.5622 94.5641 96.9009 92.8727 95.7114 91.5054C98.8465 89.9471 99.7146 86.9095 100.375 83.6638C100.642 82.3492 100.176 81.5325 98.9084 81.0938C96.7033 80.3285 93.8513 79.5297 91.5 80ZM85.1168 74.7591C85.2682 74.6261 85.4066 74.5234 85.5317 74.4522C85.6555 74.5234 85.7925 74.6248 85.9453 74.7591C88.1912 76.7443 90.5834 80.7052 89.9946 81.4943C88.8011 82.9037 86.1442 86.3971 86.1561 87.3653C86.1587 87.6182 86.214 87.825 86.3247 88.0015C86.4538 88.2044 86.6435 88.3414 86.8252 88.4639C86.8898 88.5073 87.0202 88.6219 87.0334 88.6391C88.6549 90.69 89.0896 92.8846 88.2558 94.7261C87.3706 94.0938 86.6685 93.3944 86.2562 92.7305C86.2404 92.7041 86.2074 92.7015 86.1864 92.6804C86.1653 92.6593 86.1627 92.6264 86.1363 92.6106C86.1179 92.5987 86.0955 92.6093 86.0757 92.6C86.0322 92.5826 85.9855 92.575 85.9387 92.5777C85.892 92.5751 85.8452 92.5827 85.8017 92.6C85.782 92.608 85.7609 92.5987 85.7425 92.6093C85.7161 92.6251 85.7135 92.658 85.6924 92.6791C85.6713 92.7002 85.6384 92.7028 85.6226 92.7305C85.2116 93.3944 84.5095 94.0938 83.623 94.7261C82.7892 92.8846 83.2225 90.69 84.8454 88.6391C84.877 88.5982 85.2458 88.261 85.3723 88.0779C85.4948 87.8988 85.5567 87.6854 85.5594 87.4272C85.5725 86.3971 81.0978 81.4271 81.1004 81.4047C81.327 78.6345 82.8708 76.7443 85.1168 74.7591ZM84.4318 87.9054C82.7233 88.9644 77.1724 90.7836 76.7048 90.6663C73.351 89.8233 72.6318 86.6882 71.9653 83.4069C71.8283 82.7364 71.9324 82.556 72.5778 82.332C75.0845 81.4627 77.5518 80.7816 80.181 81.9474C80.2969 81.9975 84.7782 86.8252 84.8112 87.4166C84.8098 87.5247 84.7914 87.5997 84.7545 87.6538C84.6939 87.742 84.5424 87.8369 84.4318 87.9054ZM76.004 76.3636C77.7204 76.8022 79.2523 77.4661 80.5788 78.2881C80.263 78.9737 80.0367 79.6971 79.9057 80.4405C77.81 79.7436 75.8591 79.9887 73.932 80.5314C73.6408 78.8361 72.8268 77.1394 71.4924 75.4533C73.0362 75.7049 74.5629 75.9947 76.004 76.3636ZM82.2754 67.862C81.7802 70.4873 77.5965 72.9321 71.6175 74.09C70.6678 74.2744 69.4441 74.5102 68.028 74.7644C58.416 72.9413 52.1367 69.6232 49.8565 65.1326C48.7342 62.9223 48.7908 60.87 49.0503 59.4869C51.8021 60.2549 55.3863 61.0426 58.9429 61.0939C58.9561 61.1203 58.964 61.1453 58.9772 61.1717C59.8834 62.9671 62.1228 65.4224 67.6328 66.9281C69.4362 67.4207 71.0801 67.667 72.5567 67.667C74.3838 67.667 75.9539 67.289 77.2514 66.5355C78.7412 65.6688 79.4921 64.5188 79.8491 63.7825C81.215 64.7177 82.6034 66.1245 82.2754 67.862ZM79.3393 63.4505C79.0324 64.1026 78.3434 65.2117 76.9366 66.0257C74.7368 67.2969 71.6584 67.4075 67.7896 66.3511C62.8051 64.9904 60.5776 62.8946 59.5976 61.0992C62.3177 61.065 64.972 60.5618 67.1599 59.2392C72.0944 60.1495 76.3452 61.5932 79.3393 63.4505ZM66.1457 42.8144C68.2901 43.7075 69.8959 45.8638 70.4386 48.5853C71.0551 51.6716 70.1909 54.7566 68.1281 56.8339C66.8069 58.1631 65.0642 59.0338 62.9039 59.4698C69.3663 52.433 66.9808 45.3633 65.6438 42.6326C65.8084 42.6945 65.9823 42.7459 66.1457 42.8144ZM64.8179 42.3349C65.3092 43.2083 66.2207 45.0932 66.5263 47.5631C67.0717 51.9522 65.4989 56.008 61.8975 59.6357C58.5609 60.0744 54.3088 59.5633 49.0885 58.109C53.4381 56.5547 56.5402 54.1428 58.3027 50.9102C60.4433 46.9848 60.0112 43.0173 59.6911 41.3707C61.2889 41.5195 63.1094 41.8001 64.8179 42.3349ZM41.4656 46.5132C44.1067 43.7128 48.4786 41.8488 53.3907 41.3601C53.3894 42.9949 52.9007 47.2535 48.1072 49.4455C46.3117 50.2661 44.8048 50.3623 43.6325 49.7313C42.2533 48.9897 41.65 47.4129 41.4155 46.5738C41.4326 46.5541 41.4471 46.533 41.4656 46.5132ZM39.9323 51.6953C39.5292 50.1225 39.8928 48.5234 40.9518 47.1205C41.2759 48.0913 41.9635 49.51 43.3453 50.2556C43.946 50.5796 44.6125 50.7416 45.3422 50.7416C46.2512 50.7416 47.2589 50.49 48.3548 49.9882C53.4763 47.6461 53.9861 43.0647 53.9848 41.318C54.3905 41.2877 55.6577 41.21 56.3532 41.21C57.0329 41.21 57.9879 41.2363 59.068 41.3167C59.3605 42.7617 59.8834 46.7609 57.7771 50.6218C55.9791 53.9202 52.7004 56.3307 48.0584 57.8179C47.3784 57.6173 46.7012 57.407 46.0272 57.187C42.825 56.1503 40.5474 54.0967 39.9323 51.6953ZM45.7677 58.4897C46.4711 58.7176 47.3906 59.01 48.4615 59.3196C48.1717 60.7936 48.1019 62.9895 49.3177 65.3908C51.59 69.8813 57.3398 73.1218 66.4012 75.0489C60.4959 76.0501 52.0497 77.146 44.6665 76.5453C39.7597 73.6039 37.0738 70.3635 36.7327 66.8978C36.377 63.2793 38.6993 60.3839 39.7545 59.2695C41.733 58.902 43.7918 58.6597 45.7677 58.4897ZM33.948 73.6527C30.9236 71.8348 29.4193 69.2636 29.8184 66.6001C30.2847 63.4834 33.2788 60.8015 37.4453 59.7661C37.8695 59.6608 38.316 59.5765 38.7547 59.4843C37.5388 60.9346 35.8119 63.6231 36.1386 66.9518C36.4719 70.3608 38.8877 73.5367 43.3071 76.4136C39.7255 76.0079 36.4587 75.1635 33.948 73.6527ZM36.3665 76.2332C39.5766 77.3976 43.6456 77.9891 48.6077 78.0154C47.4551 80.393 44.6928 83.2383 38.2172 85.0588C33.4369 86.401 29.6182 86.2759 26.8691 84.686C24.9169 83.5571 24.037 81.9606 23.6892 81.136C26.9007 79.0732 31.2832 77.4095 36.3665 76.2332ZM16.7394 87.2889C17.3479 87.3442 17.9354 87.4588 18.5084 87.6024L20.8545 90.935L17.3018 90.6136C17.3097 90.5744 17.3095 90.534 17.3014 90.4949C17.2932 90.4557 17.2772 90.4186 17.2544 90.3857L15.0546 87.2612C15.6161 87.2304 16.1792 87.2396 16.7394 87.2889ZM19.4292 87.8724C22.1019 88.7497 24.2359 90.337 25.3964 91.3447L21.6027 91.0022C21.5948 90.9811 21.6014 90.9574 21.5882 90.9377L19.4292 87.8724ZM14.3736 87.3323L16.6419 90.5543L13.383 90.2606L11.6982 87.8672C12.5715 87.6064 13.4672 87.4274 14.3736 87.3323ZM11.0989 88.0516L12.6045 90.1895L7.45536 89.7245C8.60825 89.0414 9.8294 88.4807 11.0989 88.0516ZM16.0873 94.4034C12.154 94.0438 8.91356 91.6424 7.3974 90.3186L25.4056 91.9454C23.6879 92.9676 20.0483 94.7656 16.0873 94.4034ZM27.1259 100.361C26.2276 102.89 24.1068 104.642 23.0095 105.412C22.6459 104.122 22.1059 101.426 23.0056 98.8965C23.8578 96.4965 25.8008 94.8091 26.9362 93.9832C26.9982 93.9766 27.0746 93.9674 27.1523 93.9581C27.5132 95.2846 28.0019 97.898 27.1259 100.361ZM28.3088 93.2099C28.1969 92.849 28.1389 92.4472 27.8188 91.8953C27.4987 91.3434 24.2741 88.0911 19.989 86.6487C19.802 84.8493 20.8966 83.0763 23.1834 81.4798C23.5891 82.4098 24.5296 84.0168 26.5542 85.1931C28.1402 86.1152 30.0516 86.5762 32.2685 86.5762C34.0995 86.5762 36.1386 86.2614 38.3779 85.6331C45.1973 83.7165 48.0387 80.592 49.2005 78.0167C52.3948 78.0049 55.9554 77.7612 59.8821 77.2922C59.6424 78.7122 59.0773 80.0703 58.142 81.3454C52.2315 89.4083 34.0626 92.438 28.3088 93.2099ZM33.4092 95.0725C31.7776 94.7488 30.1695 94.3158 28.596 93.7764C30.9842 93.4536 35.2402 92.7805 39.8572 91.5871C49.2887 89.1475 55.6023 85.8214 58.6254 81.6998C59.6582 80.2916 60.2733 78.7899 60.5065 77.2145C63.7035 76.8167 67.1415 76.2714 70.8272 75.5758C72.2353 77.2843 73.081 78.9981 73.3589 80.7013C72.9559 80.8264 72.5541 80.9568 72.151 81.0965C70.8838 81.5351 70.4175 82.3531 70.6849 83.6664C70.9365 84.902 71.2197 86.106 71.6452 87.2125C67.4958 93.0795 57.5967 97.0814 54.6329 98.1773C45.831 97.5424 37.5678 95.9011 33.4092 95.0725ZM73.3484 97.2355C68.1611 98.4566 62.0543 98.6173 56.0884 98.2682C59.9493 96.7534 68.032 93.0993 71.9205 87.8395C72.616 89.3622 73.6382 90.6584 75.3467 91.5067C74.1559 92.874 73.4959 94.5654 73.2878 96.7494C73.2746 96.8996 73.3089 97.0682 73.3484 97.2355ZM96.4728 96.8706C96.4768 97.0787 96.5584 97.3224 95.9327 97.6768C93.0941 99.2825 90.8929 98.8491 89.1133 97.3237C89.0447 97.2652 88.9648 97.2215 88.8786 97.1953C88.7923 97.1691 88.7016 97.161 88.612 97.1715C88.5225 97.182 88.4361 97.2109 88.3582 97.2564C88.2804 97.3018 88.2128 97.3629 88.1596 97.4357C87.0202 99.0045 86.164 100.182 85.5304 100.559C84.8981 100.181 84.0419 99.0045 82.9025 97.4357C82.8492 97.3628 82.7814 97.3017 82.7034 97.2562C82.6254 97.2108 82.5388 97.1819 82.4491 97.1715C82.3595 97.1611 82.2686 97.1694 82.1822 97.1958C82.0959 97.2222 82.016 97.2662 81.9474 97.325C80.1678 98.8517 77.8903 98.8043 74.8461 97.6333C74.443 97.4778 74.584 97.08 74.5879 96.8745C74.8013 94.6392 77.0196 91.6332 77.0565 91.5594C79.5856 91.1313 81.933 90.0195 83.6283 89.1093C82.4072 91.209 82.1305 93.6275 83.1554 95.4559C83.1804 95.5006 83.2144 95.5396 83.2553 95.5706C83.2961 95.6016 83.3429 95.6239 83.3927 95.636C83.4425 95.6481 83.4943 95.6498 83.5448 95.641C83.5953 95.6323 83.6434 95.6132 83.6862 95.5849C84.6267 94.9645 85.3987 94.2585 85.9361 93.5577C86.4735 94.2585 87.2454 94.9632 88.186 95.5849C88.2287 95.6133 88.2769 95.6325 88.3274 95.6414C88.3779 95.6502 88.4298 95.6486 88.4796 95.6364C88.5295 95.6243 88.5763 95.602 88.6171 95.5709C88.6579 95.5399 88.6919 95.5007 88.7168 95.4559C89.7127 93.6802 89.5928 91.5238 88.4652 89.4755C90.4029 90.5912 92.2721 91.3091 94.0438 91.6226C94.0767 91.6714 96.2607 94.6405 96.4728 96.8706ZM98.4829 82.3307C99.1297 82.5547 99.2325 82.7351 99.0955 83.4056C98.4289 86.6882 97.2092 90.5188 94.0767 90.8652C91.9401 90.4687 89.6468 89.4689 87.2415 87.8408C87.1243 87.7618 87.0057 87.6788 86.9543 87.5984C86.9201 87.5431 86.903 87.4628 86.9016 87.3534C86.903 86.7633 89.1647 83.6045 90.5504 81.9909C91.0365 81.0345 95.9775 81.464 98.4829 82.3307Z" fill="#202F36"/>
</svg>
